<?xml version="1.0" encoding="UTF-8" standalone="no"?>
<!-- Created with Inkscape (http://www.inkscape.org/) -->

<svg
   width="338.66666mm"
   height="336.99252mm"
   viewBox="0 0 338.66667 336.99253"
   version="1.1"
   id="svg8"
   inkscape:version="1.2.2 (b0a8486541, 2022-12-01)"
   sodipodi:docname="gdquest-logo.svg"
   inkscape:export-filename="E:\Clients\Q3_2019\GDQuest\Logo Files\Icon\Logo.png"
   inkscape:export-xdpi="96"
   inkscape:export-ydpi="96"
   xmlns:inkscape="http://www.inkscape.org/namespaces/inkscape"
   xmlns:sodipodi="http://sodipodi.sourceforge.net/DTD/sodipodi-0.dtd"
   xmlns="http://www.w3.org/2000/svg"
   xmlns:svg="http://www.w3.org/2000/svg"
   xmlns:rdf="http://www.w3.org/1999/02/22-rdf-syntax-ns#"
   xmlns:cc="http://creativecommons.org/ns#"
   xmlns:dc="http://purl.org/dc/elements/1.1/">
  <defs
     id="defs2" />
  <sodipodi:namedview
     id="base"
     pagecolor="#eeeeee"
     bordercolor="#666666"
     borderopacity="1.0"
     inkscape:pageopacity="0"
     inkscape:pageshadow="2"
     inkscape:zoom="0.35355339"
     inkscape:cx="35.355339"
     inkscape:cy="709.93521"
     inkscape:document-units="px"
     inkscape:current-layer="layer2"
     showgrid="false"
     fit-margin-top="0"
     fit-margin-left="0"
     fit-margin-right="0"
     fit-margin-bottom="0"
     inkscape:showpageshadow="false"
     borderlayer="true"
     inkscape:window-width="1896"
     inkscape:window-height="1003"
     inkscape:window-x="12"
     inkscape:window-y="65"
     inkscape:window-maximized="1"
     inkscape:snap-smooth-nodes="true"
     inkscape:snap-global="true"
     showborder="true"
     inkscape:snap-page="true"
     inkscape:pagecheckerboard="1"
     inkscape:deskcolor="#eeeeee" />
  <metadata
     id="metadata5">
    <rdf:RDF>
      <cc:Work
         rdf:about="">
        <dc:format>image/svg+xml</dc:format>
        <dc:type
           rdf:resource="http://purl.org/dc/dcmitype/StillImage" />
        <dc:title />
      </cc:Work>
    </rdf:RDF>
  </metadata>
  <g
     inkscape:groupmode="layer"
     id="layer2"
     inkscape:label="Layer 1"
     transform="translate(476.17857,278.03633)">
    <path
       inkscape:connector-curvature="0"
       style="color:#000000;font-style:normal;font-variant:normal;font-weight:normal;font-stretch:normal;font-size:medium;line-height:normal;font-family:sans-serif;font-variant-ligatures:normal;font-variant-position:normal;font-variant-caps:normal;font-variant-numeric:normal;font-variant-alternates:normal;font-feature-settings:normal;text-indent:0;text-align:start;text-decoration:none;text-decoration-line:none;text-decoration-style:solid;text-decoration-color:#000000;letter-spacing:normal;word-spacing:normal;text-transform:none;writing-mode:lr-tb;direction:ltr;text-orientation:mixed;dominant-baseline:auto;baseline-shift:baseline;text-anchor:start;white-space:normal;shape-padding:0;clip-rule:nonzero;display:inline;overflow:visible;visibility:visible;opacity:1;isolation:auto;mix-blend-mode:normal;color-interpolation:sRGB;color-interpolation-filters:linearRGB;solid-color:#000000;solid-opacity:1;vector-effect:none;fill:#ffffff;fill-opacity:1;fill-rule:nonzero;stroke:none;stroke-width:1.85208344;stroke-linecap:round;stroke-linejoin:round;stroke-miterlimit:4;stroke-dasharray:none;stroke-dashoffset:0;stroke-opacity:1;color-rendering:auto;image-rendering:auto;shape-rendering:auto;text-rendering:auto;enable-background:accumulate"
       d="m -349.14178,-278.02657 a 14.341467,14.341467 0 0 0 -4.27395,0.48779 l -16.23634,4.35323 c -62.62565,16.79272 -106.44905,73.83484 -106.52648,138.67102 a 14.341467,14.341467 0 0 0 0,0.0465 v 0.0465 0.0465 c 0,71.205283 52.75842,131.3457017 122.01798,141.9438417 l 0.15485,1.3843859 v 0 l 2.17569,21.8062464 a 14.341467,14.341467 0 0 0 15.72532,12.851561 l 49.87816,-5.081657 10.61207,14.548131 a 14.341467,14.341467 0 0 0 15.30722,5.385633 l 16.27041,-4.353228 c 62.6241,-16.79257 106.44286,-73.83438 106.52493,-138.670871 a 14.341467,14.341467 0 0 0 0,-0.04646 v -0.04645 -0.04646 c 0,-71.218753 -52.80333,-131.329753 -122.07372,-141.911783 l -0.17034,-1.38439 v 0 l -2.17569,-21.82994 a 14.341467,14.341467 0 0 0 -15.72532,-12.85977 l -49.87815,5.11325 -10.61208,-14.58018 a 14.341467,14.341467 0 0 0 -11.0085,-5.86553 z m -0.55748,14.34001 15.48221,21.19798 58.04046,-5.92173 3.48264,34.74592 h 0.17034 c 67.64754,4.56955 120.70637,61.16105 120.70637,128.964061 v 0.04645 0.04646 c -0.15485,58.39058 -39.5092,109.727914 -95.90666,124.850859 l -16.27041,4.353228 -15.48994,-21.173672 -58.03272,5.897422 -3.48264,-34.7135537 h -0.17034 c -67.64754,-4.5715705 -120.6816,-61.1946573 -120.6816,-128.9962743 v -0.0464 -0.0465 c 0.15486,-58.39104 39.5092,-109.72838 95.90667,-124.85132 z"
       id="path4523" />
    <path
       style="color:#000000;font-style:normal;font-variant:normal;font-weight:normal;font-stretch:normal;font-size:medium;line-height:normal;font-family:sans-serif;font-variant-ligatures:normal;font-variant-position:normal;font-variant-caps:normal;font-variant-numeric:normal;font-variant-alternates:normal;font-feature-settings:normal;text-indent:0;text-align:start;text-decoration:none;text-decoration-line:none;text-decoration-style:solid;text-decoration-color:#000000;letter-spacing:normal;word-spacing:normal;text-transform:none;writing-mode:lr-tb;direction:ltr;text-orientation:mixed;dominant-baseline:auto;baseline-shift:baseline;text-anchor:start;white-space:normal;shape-padding:0;clip-rule:nonzero;display:inline;overflow:visible;visibility:visible;opacity:1;isolation:auto;mix-blend-mode:normal;color-interpolation:sRGB;color-interpolation-filters:linearRGB;solid-color:#000000;solid-opacity:1;vector-effect:none;fill:#ffffff;fill-opacity:1;fill-rule:nonzero;stroke:none;stroke-width:45.0760994;stroke-linecap:round;stroke-linejoin:miter;stroke-miterlimit:4;stroke-dasharray:none;stroke-dashoffset:0;stroke-opacity:1;color-rendering:auto;image-rendering:auto;shape-rendering:auto;text-rendering:auto;enable-background:accumulate"
       d="m -359.97066,-235.13631 -13.73855,5.04681 1.70338,22.73413 c -4.93052,2.70543 -9.5405,5.87187 -13.78192,9.43767 l -21.25048,-8.81005 -9.3206,11.09986 12.7986,18.43153 c -2.94221,4.85093 -5.37959,10.00397 -7.27035,15.39658 l -22.45059,2.72138 -2.39557,14.16626 20.23929,9.58339 c 0,2.83722 0.15485,5.70262 0.40261,8.58769 0.29422,2.88336 0.72781,5.72011 1.30077,8.49879 l -17.95056,13.26069 5.16744,13.433341 22.55744,-1.60722 c 2.92827,4.928972 6.34433,9.526403 10.19397,13.723693 l -8.88082,20.513379 11.33524,9.109073 19.09028,-12.683081 c 4.86858,2.6915 10.02674,4.916274 15.40168,6.632355 l 2.85085,22.624954 14.47566,2.343545 10.3256,-20.892923 c 2.68979,-0.04646 5.40127,-0.205954 8.12668,-0.506369 l 0.005,0.0099 39.49371,-3.793279 -5.62736,-56.108508 -39.49836,3.78832 1.75604,17.461846 c 0,0 -0.006,-0.0054 -0.006,-0.0054 -24.85081,2.386285 -46.97156,-15.392386 -49.41204,-39.710346 -2.43894,-24.31611 15.72996,-45.95976 40.57768,-48.34759 v -0.005 l 39.49526,-3.79344 -3.87752,-38.65704 -39.49526,3.79328 c -2.73316,0.22299 -5.42141,0.5776 -8.07094,1.04991 z"
       id="path5005" />
    <path
       style="color:#000000;font-style:normal;font-variant:normal;font-weight:normal;font-stretch:normal;font-size:medium;line-height:normal;font-family:sans-serif;font-variant-ligatures:normal;font-variant-position:normal;font-variant-caps:normal;font-variant-numeric:normal;font-variant-alternates:normal;font-feature-settings:normal;text-indent:0;text-align:start;text-decoration:none;text-decoration-line:none;text-decoration-style:solid;text-decoration-color:#000000;letter-spacing:normal;word-spacing:normal;text-transform:none;writing-mode:lr-tb;direction:ltr;text-orientation:mixed;dominant-baseline:auto;baseline-shift:baseline;text-anchor:start;white-space:normal;shape-padding:0;clip-rule:nonzero;display:inline;overflow:visible;visibility:visible;opacity:1;isolation:auto;mix-blend-mode:normal;color-interpolation:sRGB;color-interpolation-filters:linearRGB;solid-color:#000000;solid-opacity:1;vector-effect:none;fill:#ffffff;fill-opacity:1;fill-rule:nonzero;stroke:none;stroke-width:45.0760994;stroke-linecap:round;stroke-linejoin:miter;stroke-miterlimit:4;stroke-dasharray:none;stroke-dashoffset:0;stroke-opacity:1;color-rendering:auto;image-rendering:auto;shape-rendering:auto;text-rendering:auto;enable-background:accumulate"
       d="m -274.17899,-188.21461 -10.3287,20.89261 c -2.6867,0.0465 -5.39662,0.2075 -8.12513,0.50637 l -39.49836,3.79328 3.87597,38.65178 39.49991,-3.79328 a 45.20931,44.244302 0 0 1 49.41359,39.710503 45.20931,44.244302 0 0 1 -40.58233,48.347433 l -39.49681,3.808609 3.87752,38.6520858 39.49991,-3.793589 c 2.73315,-0.2322795 5.42295,-0.5915385 8.06474,-1.0560975 l 14.29603,18.5247557 13.72617,-5.047279 -1.69099,-22.733661 c 4.92742,-2.705436 9.53585,-5.871871 13.77418,-9.438136 l 21.25822,8.810208 9.31286,-11.099864 -12.79241,-18.431225 c 2.94221,-4.850925 5.38734,-10.008615 7.28119,-15.401525 l 22.4351,-2.716587 2.40332,-14.166263 -20.24548,-9.583233 c 0.15485,-2.836443 -0.15486,-5.703082 -0.40262,-8.587684 -0.29422,-2.883363 -0.72781,-5.720425 -1.30077,-8.499261 l 17.95211,-13.26022 -5.16744,-13.43861 -22.5497,1.61233 c -2.92981,-4.92912 -6.35052,-9.5264 -10.20016,-13.72338 l 8.87927,-20.51338 -11.33369,-9.10954 -19.09493,12.68339 c -4.87013,-2.69212 -10.02363,-4.91581 -15.39858,-6.6322 l -2.86014,-22.62526 z"
       id="path4529" />
  </g>
</svg>
