<?xml version="1.0" encoding="UTF-8" standalone="no"?>
<svg
   xmlns:dc="http://purl.org/dc/elements/1.1/"
   xmlns:cc="http://creativecommons.org/ns#"
   xmlns:rdf="http://www.w3.org/1999/02/22-rdf-syntax-ns#"
   xmlns:svg="http://www.w3.org/2000/svg"
   xmlns="http://www.w3.org/2000/svg"
   xmlns:sodipodi="http://sodipodi.sourceforge.net/DTD/sodipodi-0.dtd"
   xmlns:inkscape="http://www.inkscape.org/namespaces/inkscape"
   width="250"
   height="350"
   viewBox="0 0 66.145832 92.60417"
   version="1.1"
   id="svg8"
   inkscape:version="1.0.1 (3bc2e813f5, 2020-09-07)"
   sodipodi:docname="card_back.svg">
  <defs
     id="defs2" />
  <sodipodi:namedview
     id="base"
     pagecolor="#ffffff"
     bordercolor="#666666"
     borderopacity="1.0"
     inkscape:pageopacity="0"
     inkscape:pageshadow="2"
     inkscape:zoom="0.7"
     inkscape:cx="-27.441606"
     inkscape:cy="217.43738"
     inkscape:document-units="px"
     inkscape:current-layer="layer1"
     inkscape:document-rotation="0"
     showgrid="false"
     units="px"
     inkscape:window-width="1920"
     inkscape:window-height="1017"
     inkscape:window-x="-8"
     inkscape:window-y="-8"
     inkscape:window-maximized="1"
     showborder="false"
     inkscape:snap-global="false" />
  <metadata
     id="metadata5">
    <rdf:RDF>
      <cc:Work
         rdf:about="">
        <dc:format>image/svg+xml</dc:format>
        <dc:type
           rdf:resource="http://purl.org/dc/dcmitype/StillImage" />
        <dc:title></dc:title>
      </cc:Work>
    </rdf:RDF>
  </metadata>
  <g
     inkscape:label="Layer 1"
     inkscape:groupmode="layer"
     id="layer1">
    <rect
       style="fill:#73275c;fill-opacity:1;stroke:#272736;stroke-width:2.74717;stroke-linecap:round;stroke-miterlimit:4;stroke-dasharray:none;stroke-opacity:1;paint-order:stroke fill markers"
       id="rect883"
       width="66.145836"
       height="92.604164"
       x="-1.4824219e-06"
       y="1.678952e-06"
       ry="0" />
    <path
       id="path6321"
       class="cls-1"
       d="m 12.302161,16.112643 a 0.72163931,0.72163931 0 0 0 -0.211716,0.02389 l -0.808116,0.217678 a 7.1567535,7.1567535 0 0 0 -5.298984,6.900305 v 0 a 7.1746454,7.1746454 0 0 0 6.071316,7.064313 v 0.06864 l 0.107408,1.085437 a 0.71269337,0.71269337 0 0 0 0.78128,0.641122 v 0 l 2.48398,-0.253462 0.530794,0.724624 a 0.71567535,0.71567535 0 0 0 0.760408,0.265386 l 0.808116,-0.214703 a 7.1030778,7.1030778 0 0 0 4.526652,-3.787106 5.5107002,5.5107002 0 0 0 3.73045,0.894594 7.3177804,7.3177804 0 0 0 1.789188,-0.545705 l 3.342801,0.146111 v 0 c 1.443286,0.03877 2.931293,-0.250487 3.915342,-1.168929 a 5.4629885,5.4629885 0 0 0 4.028654,1.210686 0.61726999,0.61726999 0 0 0 0.134198,-0.03573 l 0.617261,0.78127 a 0.71567535,0.71567535 0 0 0 0.98406,0.134197 l 1.622193,-1.192796 a 3.5783768,3.5783768 0 0 0 1.490995,0.369773 0.66498168,0.66498168 0 0 0 0.351875,-0.09546 0.64410781,0.64410781 0 0 0 0.214703,0.02389 l 3.703614,-0.158044 a 0.70971139,0.70971139 0 0 0 0.536757,-0.298205 c 0.137173,0.03877 0.155059,0.09546 0.333978,0.104364 a 4.9500879,4.9500879 0 0 0 1.675875,-0.268384 5.0425292,5.0425292 0 0 0 4.747316,0.166995 3.4113858,3.4113858 0 0 0 1.109297,0.345914 4.472971,4.472971 0 0 0 2.311035,-0.450278 l 0.873721,-0.42643 a 0.71269337,0.71269337 0 0 0 0.381698,-0.799167 l -0.483087,-2.123167 a 0.71269337,0.71269337 0 0 0 0.420457,-0.5964 l 0.274346,-3.318941 a 0.71269337,0.71269337 0 0 0 -0.65007,-0.769357 v 0 l -0.751459,-0.05669 0.05669,-0.647094 a 0.71567535,0.71567535 0 0 0 -0.653056,-0.772332 v 0 l -3.673794,-0.283284 a 0.71269337,0.71269337 0 0 0 -0.76637,0.653057 l -0.05669,0.653045 h -0.03573 a 0.71269337,0.71269337 0 0 0 -0.554654,0.205765 0.96317976,0.96317976 0 0 0 -0.468175,-0.02987 4.7324032,4.7324032 0 0 0 -1.094386,0.384672 4.3715836,4.3715836 0 0 0 -2.194734,-0.784256 4.1151333,4.1151333 0 0 0 -1.517829,0.283284 0.7544411,0.7544411 0 0 0 -0.214703,-0.02389 l -3.646958,0.158046 v 0 h -0.05072 l -1.759366,0.07157 a 5.4003669,5.4003669 0 0 0 -7.359532,-0.387648 5.9341415,5.9341415 0 0 0 -3.301056,-1.243495 l -4.213535,-0.184881 a 0.71269337,0.71269337 0 0 0 -0.742511,0.644108 5.993781,5.993781 0 0 0 -2.182809,-0.134186 5.7045289,5.7045289 0 0 0 -3.402445,1.935299 C 19.864548,19.96538 18.474954,18.972384 16.772244,18.683127 v -0.0745 l -0.110338,-1.088413 a 0.71567535,0.71567535 0 0 0 -0.78128,-0.638145 v 0 l -2.483991,0.253461 -0.539732,-0.727599 a 0.70374743,0.70374743 0 0 0 -0.548692,-0.298194 z m -0.02389,0.7127 0.78127,1.055616 2.889548,-0.298195 0.172945,1.729545 v 0 a 6.3396908,6.3396908 0 0 1 4.803974,2.874626 5.1319887,5.1319887 0 0 1 3.512771,-2.194734 5.9162496,5.9162496 0 0 1 2.752375,0.319079 l 0.03877,-0.823027 4.222484,0.187856 a 5.1588265,5.1588265 0 0 1 3.348764,1.368732 4.9739436,4.9739436 0 0 1 2.81798,-1.347859 4.8904482,4.8904482 0 0 1 4.34176,1.619218 l 1.968107,-0.08351 h 0.05365 l 3.646969,-0.158046 v 0.05669 a 3.9093767,3.9093767 0 0 1 1.660964,-0.316092 3.8288632,3.8288632 0 0 1 2.15895,0.846886 4.1121513,4.1121513 0 0 1 1.288215,-0.45624 4.932196,4.932196 0 0 1 0.834951,0.07157 l 0.01792,-0.238563 0.74251,0.05962 0.113314,-1.36277 3.688716,0.292233 -0.113314,1.359783 1.467135,0.1163 -0.283295,3.295082 -0.596388,-0.04474 0.676905,2.981977 -0.870734,0.426419 a 3.8199172,3.8199172 0 0 1 -1.94426,0.381697 2.9819806,2.9819806 0 0 1 -1.171916,-0.375724 4.2195026,4.2195026 0 0 1 -1.344872,0.453253 4.472971,4.472971 0 0 1 -3.038633,-0.49501 l -0.199796,-0.116297 a 4.4520971,4.4520971 0 0 1 -1.789189,0.298194 c -0.354862,-0.01792 -0.632183,-0.226626 -0.960199,-0.328016 l 0.02389,0.506935 -3.703615,0.158046 v -0.09546 a 3.5992506,3.5992506 0 0 1 -0.557629,0.166994 3.226503,3.226503 0 0 1 -1.646053,-0.414495 l -1.87268,1.380657 -0.894594,-1.148068 a 4.6608357,4.6608357 0 0 1 -0.495011,0.134198 4.8695744,4.8695744 0 0 1 -4.04059,-1.389605 c -0.685854,1.010894 -2.230518,1.383631 -3.799042,1.344872 l -3.450152,-0.152084 a 6.8346996,6.8346996 0 0 1 -1.81901,0.560617 4.9709617,4.9709617 0 0 1 -3.936214,-1.145081 6.4380962,6.4380962 0 0 1 -4.422277,4.067414 l -0.808115,0.217689 -0.754435,-1.064564 -2.889548,0.298194 -0.175932,-1.726569 v 0 A 6.4559881,6.4559881 0 0 1 6.719904,23.260381 v 0 a 6.464934,6.464934 0 0 1 4.771177,-6.214441 z m -0.509921,1.413453 -0.685854,0.250487 0.08645,1.133156 a 4.3477278,4.3477278 0 0 0 -0.685865,0.468165 l -1.058602,-0.438343 -0.462203,0.551667 0.635159,0.918443 a 4.1747729,4.1747729 0 0 0 -0.360813,0.76637 l -1.118245,0.134186 -0.1163,0.706738 1.004932,0.477113 c 0,0.140149 0,0.283284 0.02085,0.426419 a 3.9153405,3.9153405 0 0 0 0.06559,0.423443 l -0.894594,0.659018 0.256449,0.667968 1.124207,-0.07754 a 4.2224846,4.2224846 0 0 0 0.506935,0.682867 l -0.441341,1.019843 0.563603,0.453254 0.951251,-0.629197 a 4.0614577,4.0614577 0 0 0 0.754435,0.351875 l 0.140159,1.127195 0.721638,0.116288 0.512897,-1.040704 a 3.7423857,3.7423857 0 0 0 0.405557,-0.02389 v 0 l 1.96512,-0.190843 -0.280308,-2.791134 -1.965121,0.187868 0.08351,0.870734 v 0 a 2.2394674,2.2394674 0 0 1 -2.457156,-1.977056 2.2126296,2.2126296 0 0 1 2.018802,-2.406461 v 0 l 1.965132,-0.190843 -0.190855,-1.923374 -1.968107,0.190843 a 3.5783768,3.5783768 0 0 0 -0.399583,0.05072 z m 4.270192,2.334894 -0.515883,1.040705 a 3.6439803,3.6439803 0 0 0 -0.40257,0.02389 l -1.968108,0.190843 0.19383,1.923386 1.965132,-0.190854 a 2.2394674,2.2394674 0 0 1 2.460131,1.977056 v 0 a 2.2126296,2.2126296 0 0 1 -2.018802,2.406461 v 0 l -1.96512,0.190843 0.190843,1.923375 1.968107,-0.187856 c 0.134186,0 0.268372,-0.02987 0.399583,-0.05365 l 0.7127,0.921429 0.682867,-0.250486 -0.08351,-1.13017 a 4.1747729,4.1747729 0 0 0 0.685854,-0.471151 l 1.055615,0.438354 0.465189,-0.551667 -0.638134,-0.918454 a 4.1956468,4.1956468 0 0 0 0.3638,-0.76637 l 1.115258,-0.134186 0.119276,-0.706727 -1.007908,-0.474138 a 2.9581247,2.9581247 0 0 0 -0.02085,-0.429405 2.9074311,2.9074311 0 0 0 -0.06559,-0.423443 L 20.624846,24.262456 20.368398,23.5945 19.24419,23.67497 a 4.0763675,4.0763675 0 0 0 -0.506935,-0.685865 l 0.441329,-1.019831 -0.563591,-0.450279 -0.951251,0.632173 a 4.3417638,4.3417638 0 0 0 -0.763383,-0.330992 l -0.143135,-1.127194 z m 12.351362,0.181894 -0.232588,4.965007 -0.298206,-1.81901 -1.890566,0.277321 0.235575,1.490994 a 2.5704673,2.5704673 0 0 1 -0.840924,0.33994 1.4909903,1.4909903 0 0 1 -1.741481,-1.312064 1.4552066,1.4552066 0 0 1 1.243495,-1.735518 2.6390529,2.6390529 0 0 1 1.750418,0.438354 l 1.016856,-1.643078 a 4.771169,4.771169 0 0 0 -3.035658,-0.569554 c -2.176848,0.319068 -3.536631,1.938286 -3.238425,3.840788 0.298194,1.902513 2.039674,3.083377 4.130044,2.779209 a 6.1130603,6.1130603 0 0 0 2.609228,-1.115259 l -0.02389,0.566579 2.916382,0.128224 c 1.938285,0.08351 3.330866,-0.784268 3.760271,-2.266313 0.471162,1.5566 2.057572,2.543634 3.876582,2.319983 a 4.0256739,4.0256739 0 0 0 1.112272,-0.298194 l 0.664981,0.843899 0.995984,-0.733561 -0.626211,-0.793217 a 3.2145751,3.2145751 0 0 0 0.894588,-1.461161 l 0.02987,0.661994 c 0.05365,1.16894 0.79618,1.87268 1.947234,1.821986 0.817053,-0.0328 1.41644,-0.366775 1.741469,-1.040705 l 0.0417,0.918454 1.258405,-0.05365 -0.08351,-1.848831 c 0.316092,0.936351 1.171916,1.556599 2.367691,1.619218 a 2.919359,2.919359 0 0 0 2.206669,-0.739533 l -0.635159,-0.712689 a 1.9502154,1.9502154 0 0 1 -1.413465,0.483087 1.4194228,1.4194228 0 0 1 -1.404504,-1.210686 l 3.790092,0.199792 q 0.01792,-0.152084 0.02682,-0.298206 c 0.733573,0.894594 2.615202,0.333989 2.752375,1.109297 0.05669,0.322054 -0.241549,0.512908 -0.667968,0.5964 a 2.9312869,2.9312869 0 0 1 -1.821985,-0.322054 l -0.277333,0.894594 a 3.384548,3.384548 0 0 0 2.212631,0.339951 2.2603413,2.2603413 0 0 0 1.5566,-0.85881 1.4253867,1.4253867 0 0 0 1.255407,0.769345 2.5764313,2.5764313 0 0 0 1.312076,-0.26241 l -0.211724,-0.930378 a 1.7891884,1.7891884 0 0 1 -0.745485,0.14611 c -0.33399,-0.02682 -0.521846,-0.196805 -0.483087,-0.670943 l 0.184881,-2.233504 1.467134,0.113313 0.07157,-0.879683 -1.464148,-0.113313 0.113314,-1.362759 -1.237521,-0.09546 -0.107295,1.374694 -0.730587,-0.05962 v 0.205754 a 3.6439803,3.6439803 0 0 0 -1.77129,-0.14611 c -0.709713,0.1163 -1.318037,0.450278 -1.562562,0.978086 -0.298194,-0.802154 -1.010894,-1.294178 -2.147026,-1.353822 -1.374694,-0.07157 -2.424347,0.694803 -2.683782,1.941273 l -0.0745,-1.628156 -1.258394,0.05072 0.113313,2.45418 c 0.03877,0.796181 -0.414494,1.431351 -1.219623,1.490983 a 1.0287833,1.0287833 0 0 1 -1.157016,-1.067551 l -0.125238,-2.758325 -1.258394,0.05365 0.02085,0.465189 C 41.057387,21.596542 39.527634,20.710897 37.78914,20.9256 a 3.5097912,3.5097912 0 0 0 -2.981976,2.284199 c -0.378722,-1.350846 -1.613257,-2.218594 -3.381572,-2.296135 z m 9.765993,1.240508 a 2.2185936,2.2185936 0 0 1 2.290161,1.899526 2.1410621,2.1410621 0 0 1 -0.432392,1.598335 l -0.509921,-0.644108 -0.995984,0.733573 0.50396,0.638145 a 2.2007017,2.2007017 0 0 1 -0.509922,0.125238 2.2692872,2.2692872 0 0 1 -2.555558,-1.893553 2.2036837,2.2036837 0 0 1 1.983018,-2.439258 1.9323235,1.9323235 0 0 1 0.226638,-0.01792 z m -7.621943,0.536757 0.730587,0.0328 c 0.864772,0.03877 1.401529,0.694791 1.356796,1.660953 -0.04474,0.966161 -0.5964,1.544675 -1.398553,1.511867 l -0.82004,-0.04474 z M 49.0431,22.971203 h 0.146122 c 0.778294,0.0417 1.26138,0.530794 1.249445,1.267342 L 47.75488,24.098386 a 1.3329454,1.3329454 0 0 1 1.303127,-1.13017 z m 5.644897,0.265397 0.682867,0.05365 -0.143135,1.732532 c -0.736548,-0.9602 -2.683782,-0.411508 -2.812006,-1.121221 -0.05669,-0.298194 0.205754,-0.477113 0.596399,-0.542719 a 3.2503589,3.2503589 0 0 1 1.565537,0.202768 z"
       style="fill:#ffffff;stroke-width:0.298198" />
  </g>
  <inkscape:templateinfo>
    <inkscape:name>pear</inkscape:name>
    <inkscape:date>2020-11-14</inkscape:date>
  </inkscape:templateinfo>
</svg>
