# Blender 3.5.1
# www.blender.org
o plane
v -1.023902 -1.023902 -0.732205
v 1.023902 -1.023902 -0.732205
v -1.023902 1.023902 -0.732205
v 1.023902 1.023902 -0.732205
v -1.142311 0.571155 -0.891747
v -1.191949 0.000000 -0.958628
v -1.142311 -0.571156 -0.891747
v -0.571155 -1.142311 -0.891747
v -0.000000 -1.191949 -0.958628
v 0.571155 -1.142311 -0.891747
v 1.142311 -0.571155 -0.891747
v 1.191949 0.000000 -0.958628
v 1.142311 0.571155 -0.891747
v 0.571156 1.142311 -0.891747
v -0.000000 1.191949 -0.958628
v -0.571156 1.142311 -0.891747
v -0.657180 -0.657180 -1.123562
v 0.000000 -0.695817 -1.227679
v 0.657180 -0.657180 -1.123562
v -0.695817 -0.000000 -1.227679
v 0.000000 -0.000000 -1.352622
v 0.695817 -0.000000 -1.227679
v -0.657180 0.657180 -1.123562
v -0.000000 0.695817 -1.227679
v 0.657180 0.657180 -1.123562
vn 0.3091 0.3091 0.8994
vn -0.0000 0.3230 0.9464
vn -0.0000 -0.0000 1.0000
vn 0.3230 -0.0000 0.9464
vn -0.3091 0.3091 0.8994
vn -0.3230 -0.0000 0.9464
vn -0.0000 -0.3230 0.9464
vn 0.3091 -0.3091 0.8994
vn -0.3091 -0.3091 0.8994
vn 0.4259 0.4259 0.7982
vn 0.2753 0.4496 0.8497
vn 0.4496 0.2753 0.8497
vn -0.0000 0.4655 0.8851
vn -0.2753 0.4496 0.8497
vn -0.4259 0.4259 0.7982
vn -0.4496 0.2753 0.8497
vn -0.4655 -0.0000 0.8851
vn -0.4496 -0.2753 0.8497
vn -0.4259 -0.4259 0.7982
vn -0.2753 -0.4496 0.8497
vn -0.0000 -0.4655 0.8851
vn 0.2753 -0.4496 0.8497
vn 0.4496 -0.2753 0.8497
vn 0.4259 -0.4259 0.7982
vn 0.4655 -0.0000 0.8851
vt 0.000000 0.000000
vt 1.000000 0.000000
vt 0.000000 1.000000
vt 1.000000 1.000000
vt 0.000000 0.750000
vt 0.000000 0.500000
vt 0.000000 0.250000
vt 0.250000 0.000000
vt 0.500000 0.000000
vt 0.750000 0.000000
vt 1.000000 0.250000
vt 1.000000 0.500000
vt 1.000000 0.750000
vt 0.750000 1.000000
vt 0.500000 1.000000
vt 0.250000 1.000000
vt 0.250000 0.250000
vt 0.500000 0.250000
vt 0.750000 0.250000
vt 0.250000 0.500000
vt 0.500000 0.500000
vt 0.750000 0.500000
vt 0.250000 0.750000
vt 0.500000 0.750000
vt 0.750000 0.750000
s 1
f 17/17/1 18/18/2 21/21/3 20/20/4
f 18/18/2 19/19/5 22/22/6 21/21/3
f 20/20/4 21/21/3 24/24/7 23/23/8
f 21/21/3 22/22/6 25/25/9 24/24/7
f 1/1/10 8/8/11 17/17/1 7/7/12
f 8/8/11 9/9/13 18/18/2 17/17/1
f 9/9/13 10/10/14 19/19/5 18/18/2
f 10/10/14 2/2/15 11/11/16 19/19/5
f 19/19/5 11/11/16 12/12/17 22/22/6
f 22/22/6 12/12/17 13/13/18 25/25/9
f 25/25/9 13/13/18 4/4/19 14/14/20
f 24/24/7 25/25/9 14/14/20 15/15/21
f 23/23/8 24/24/7 15/15/21 16/16/22
f 5/5/23 23/23/8 16/16/22 3/3/24
f 6/6/25 20/20/4 23/23/8 5/5/23
f 7/7/12 17/17/1 20/20/4 6/6/25
